<svg width="19" height="18" viewBox="0 0 19 18" fill="none" xmlns="http://www.w3.org/2000/svg">
<path d="M16.8669 15.8197L15.4077 14.4659M9.20586 15.1428C10.1161 15.1428 11.0175 14.9765 11.8584 14.6533C12.6994 14.3302 13.4635 13.8565 14.1071 13.2594C14.7508 12.6622 15.2613 11.9533 15.6097 11.1732C15.958 10.393 16.1373 9.55676 16.1373 8.71229C16.1373 7.86781 15.958 7.03161 15.6097 6.25142C15.2613 5.47123 14.7508 4.76233 14.1071 4.1652C13.4635 3.56807 12.6994 3.0944 11.8584 2.77123C11.0175 2.44807 10.1161 2.28174 9.20586 2.28174C7.36753 2.28174 5.60449 2.95924 4.30459 4.1652C3.00469 5.37116 2.27441 7.0068 2.27441 8.71229C2.27441 10.4178 3.00469 12.0534 4.30459 13.2594C5.60449 14.4653 7.36753 15.1428 9.20586 15.1428V15.1428Z" stroke="white" stroke-opacity="0.96" stroke-width="1.5" stroke-linecap="round" stroke-linejoin="round"/>
</svg>
