<svg width="63" height="10" viewBox="0 0 63 10" fill="none" xmlns="http://www.w3.org/2000/svg">
<path d="M1.81108 10L2.58049 6.30263L0 3.81579L3.40909 3.48684L4.73485 0L6.06061 3.48684L9.4697 3.81579L6.8892 6.30263L7.65862 10L4.73485 8.03947L1.81108 10Z" fill="#F0DB21"/>
<path d="M15.0684 10L15.8378 6.30263L13.2573 3.81579L16.6664 3.48684L17.9922 0L19.3179 3.48684L22.727 3.81579L20.1465 6.30263L20.9159 10L17.9922 8.03947L15.0684 10Z" fill="#F0DB21"/>
<path d="M29.0653 8.90238L29.5851 6.4045L29.6414 6.13419L29.4426 5.94261L27.6439 4.2092L29.9722 3.98453L30.2813 3.95471L30.3916 3.66454L31.25 1.40688L32.1084 3.66454L32.2187 3.95471L32.5277 3.98453L34.8561 4.2092L33.0574 5.94261L32.8586 6.13419L32.9148 6.4045L33.4346 8.90238L31.5285 7.62419L31.25 7.43747L30.9715 7.62419L29.0653 8.90238Z" fill="#F0DB21" stroke="#F0DB21"/>
<path d="M42.3236 8.90238L42.8434 6.4045L42.8997 6.13419L42.7009 5.94261L40.9022 4.2092L43.2306 3.98453L43.5396 3.95471L43.6499 3.66454L44.5083 1.40688L45.3667 3.66454L45.477 3.95471L45.786 3.98453L48.1144 4.2092L46.3157 5.94261L46.1169 6.13419L46.1731 6.4045L46.6929 8.90238L44.7868 7.62419L44.5083 7.43747L44.2298 7.62419L42.3236 8.90238Z" fill="#F0DB21" stroke="#F0DB21"/>
<path d="M55.2114 9.45119L55.856 6.35357L55.8841 6.21841L55.7847 6.12262L53.5951 4.01249L56.4639 3.73569L56.6184 3.72078L56.6735 3.57569L57.7656 0.703442L58.8577 3.57569L58.9129 3.72078L59.0674 3.73569L61.9361 4.01249L59.7465 6.12262L59.6471 6.21841L59.6752 6.35357L60.3198 9.45119L57.9048 7.83183L57.7656 7.73847L57.6264 7.83183L55.2114 9.45119Z" stroke="#F0DB21" stroke-width="0.5"/>
</svg>
