<svg width="174" height="25" viewBox="0 0 174 25" fill="none" xmlns="http://www.w3.org/2000/svg">
<path d="M5.03289 25L7.17105 15.7566L0 9.53947L9.47368 8.71711L13.1579 0L16.8421 8.71711L26.3158 9.53947L19.1447 15.7566L21.2829 25L13.1579 20.0987L5.03289 25Z" fill="#F0DB21"/>
<path d="M41.8747 25L44.0128 15.7566L36.8418 9.53947L46.3155 8.71711L49.9997 0L53.6839 8.71711L63.1576 9.53947L55.9865 15.7566L58.1247 25L49.9997 20.0987L41.8747 25Z" fill="#F0DB21"/>
<path d="M79.4709 23.9616L81.3428 15.8693L81.4106 15.576L81.1832 15.3788L74.9046 9.93545L83.2015 9.21523L83.5016 9.18919L83.6188 8.91176L86.8425 1.28436L90.0661 8.91176L90.1834 9.18919L90.4834 9.21523L98.7803 9.93545L92.5018 15.3788L92.2743 15.576L92.3422 15.8693L94.2141 23.9616L87.1007 19.6705L86.8425 19.5148L86.5842 19.6705L79.4709 23.9616Z" fill="#F0DB21" stroke="#F0DB21"/>
<path d="M116.313 23.9616L118.185 15.8693L118.252 15.576L118.025 15.3788L111.746 9.93545L120.043 9.21523L120.343 9.18919L120.461 8.91176L123.684 1.28436L126.908 8.91176L127.025 9.18919L127.325 9.21523L135.622 9.93545L129.344 15.3788L129.116 15.576L129.184 15.8693L131.056 23.9616L123.943 19.6705L123.684 19.5148L123.426 19.6705L116.313 23.9616Z" fill="#F0DB21" stroke="#F0DB21"/>
<path d="M153.155 23.9616L155.027 15.8693L155.095 15.576L154.867 15.3788L148.589 9.93545L156.886 9.21523L157.186 9.18919L157.303 8.91176L160.527 1.28436L163.75 8.91176L163.867 9.18919L164.168 9.21523L172.464 9.93545L166.186 15.3788L165.958 15.576L166.026 15.8693L167.898 23.9616L160.785 19.6705L160.527 19.5148L160.268 19.6705L153.155 23.9616Z" stroke="#F0DB21"/>
</svg>
